<svg width="177" height="7" viewBox="0 0 177 7" fill="none" xmlns="http://www.w3.org/2000/svg">
<g clip-path="url(#clip0_4_19)">
<g clip-path="url(#clip1_4_19)">
<g clip-path="url(#clip2_4_19)">
<path d="M166.565 4.78342C161.463 4.54627 156.861 4.58479 152.032 4.57949C142.605 4.56753 133.182 3.64814 123.756 3.68003C102.647 3.76373 81.2105 3.23428 60.0254 4.10517C53.7682 4.35827 47.5187 4.57284 41.3246 4.93687C40.7303 4.96942 40.1419 5.0033 39.5448 5.04182C33.7336 5.38859 26.1468 5.18598 20.3707 5.55002C15.2846 6.03361 11.3436 6.64011 6.47456 6.4747C5.18273 6.36047 3.80639 6.15384 3.03154 5.73599C1.34059 4.83855 0.554143 4.01756 1.37266 3.33324C1.63919 3.10804 2.09941 2.8762 2.5946 2.6676C3.56169 2.27967 4.72245 1.97607 5.35309 1.94949C16.2384 1.4207 28.5875 1.32107 38.4244 1.22674C43.28 1.18223 48.2934 1.12178 54.4236 1.00685C68.5841 0.842107 90.9146 0.735812 105.09 0.577061C117.476 0.434238 129.894 1.22144 142.161 1.80668C146.824 2.02789 149.76 2.02789 153.942 2.08833C154.64 2.09231 155.429 2.10427 156.239 2.1149C160.371 2.17535 167.813 1.87776 170.216 2.45038C172.622 3.02898 174.302 3.08943 176.403 4.15302C176.514 5.20195 175.668 5.6862 174.594 5.86231C172.091 6.28145 169.797 6.74979 167.849 6.89395C165.569 7.05866 163.729 7.0653 163.356 6.66875C162.995 6.27085 163.199 6.0244 163.56 5.84234C164.189 5.54477 165.324 5.21924 166.339 4.99871L166.565 4.78342Z" fill="#FEB701" fill-opacity="0.8"/>
</g>
</g>
</g>
<defs>
<clipPath id="clip0_4_19">
<rect width="175.56" height="6.44" fill="white" transform="translate(0.949951 0.560059)"/>
</clipPath>
<clipPath id="clip1_4_19">
<rect width="175.56" height="6.44" fill="white" transform="translate(0.949951 0.560059)"/>
</clipPath>
<clipPath id="clip2_4_19">
<rect width="175.366" height="6.44" fill="white" transform="translate(1.04688 0.560059)"/>
</clipPath>
</defs>
</svg>
